<?xml version="1.0" standalone="no"?>
<!DOCTYPE svg PUBLIC "-//W3C//DTD SVG 20010904//EN"
 "http://www.w3.org/TR/2001/REC-SVG-20010904/DTD/svg10.dtd">
<svg version="1.0" xmlns="http://www.w3.org/2000/svg"
 width="300.000000pt" height="300.000000pt" viewBox="0 0 300.000000 300.000000"
 preserveAspectRatio="xMidYMid meet">
<metadata>
Created by potrace 1.14, written by Peter Selinger 2001-2017
</metadata>
<g transform="translate(0.000000,300.000000) scale(0.100000,-0.100000)"
fill="#000000" stroke="none">
<path d="M951 2949 c-17 -16 -20 -24 -10 -35 6 -7 15 -11 20 -8 5 3 9 0 9 -5
0 -15 13 -14 36 5 10 8 14 13 7 10 -6 -4 -14 3 -18 14 -3 11 -11 20 -16 20 -6
0 -7 5 -4 10 10 16 1 12 -24 -11z"/>
<path d="M1470 2910 c-8 -5 -18 -6 -22 -4 -4 3 -8 0 -8 -5 0 -6 -4 -11 -9 -11
-5 0 -57 -23 -115 -50 -58 -28 -109 -50 -112 -50 -4 1 -10 -2 -13 -7 -11 -15
-52 -34 -61 -28 -6 4 -10 -1 -10 -9 0 -10 -6 -13 -15 -10 -8 4 -15 1 -15 -7 0
-7 -3 -10 -6 -6 -4 3 -39 -11 -79 -33 -40 -22 -75 -36 -79 -33 -3 4 -6 1 -6
-5 0 -7 -3 -12 -7 -11 -16 2 -53 -14 -53 -22 0 -5 -5 -9 -11 -9 -5 0 -31 -10
-57 -22 -26 -12 -51 -22 -55 -22 -4 -1 -11 -7 -16 -14 -5 -8 -10 -12 -12 -11
-7 5 -87 -30 -94 -41 -3 -5 -15 -10 -25 -10 -10 0 -26 -8 -36 -17 -10 -10 -20
-17 -23 -16 -3 2 -35 -12 -71 -29 -36 -18 -67 -33 -70 -33 -3 0 -33 -15 -67
-32 -34 -17 -65 -28 -69 -25 -5 4 -4 0 2 -8 16 -23 19 -84 3 -75 -9 6 -10 4
-3 -6 12 -19 14 -150 2 -142 -6 3 -6 -3 0 -14 7 -12 7 -25 1 -36 -6 -9 -7 -23
-2 -30 11 -18 10 -261 -2 -269 -6 -5 -5 -8 3 -8 7 0 10 -5 6 -11 -4 -8 -13 -4
-25 12 -28 36 -23 18 5 -20 26 -35 25 -60 -2 -56 -9 1 -11 0 -5 -2 7 -3 13 -9
13 -14 0 -6 5 -7 12 -3 7 5 8 3 3 -6 -12 -19 -12 -54 0 -62 7 -5 6 -8 -1 -8
-7 0 -10 -15 -8 -37 1 -21 -1 -32 -5 -24 -6 10 -10 9 -15 -4 -9 -24 -8 -25 12
-19 13 5 14 4 3 -4 -9 -7 -10 -12 -2 -16 6 -4 11 -12 11 -19 0 -6 -7 -1 -16
11 -8 12 -20 19 -26 16 -7 -4 -5 -10 6 -16 12 -7 14 -14 6 -28 -13 -25 -13
-27 5 -27 10 0 14 6 10 16 -3 11 0 10 10 -3 8 -11 15 -25 15 -30 0 -6 -5 -4
-10 4 -8 12 -10 11 -10 -7 0 -12 5 -25 10 -28 6 -4 8 -11 4 -16 -3 -5 -11 -6
-17 -2 -9 5 -9 3 0 -8 6 -8 10 -24 9 -34 -2 -11 1 -28 6 -38 5 -11 5 -17 -1
-17 -6 0 -8 -12 -5 -27 11 -57 11 -68 2 -85 -6 -12 -5 -18 2 -18 6 0 8 -5 3
-12 -11 -19 -13 -38 -2 -38 5 0 5 -10 0 -23 -5 -13 -5 -30 -1 -37 5 -8 5 -21
0 -31 -5 -9 -7 -19 -4 -22 4 -4 8 -200 4 -217 -4 -16 -5 -88 -2 -85 2 2 35
-12 72 -31 37 -19 73 -34 79 -34 7 0 9 -4 6 -10 -3 -5 3 -10 15 -10 12 0 18
-4 15 -10 -3 -5 -1 -10 4 -10 6 0 10 -3 10 -7 -4 -23 4 -31 30 -35 21 -3 28
-1 24 9 -3 7 0 13 6 13 6 0 11 -4 11 -8 0 -5 6 -9 13 -9 7 0 63 -25 125 -56
61 -30 112 -52 112 -49 0 4 4 2 8 -3 4 -6 54 -33 112 -60 58 -28 108 -54 112
-60 4 -5 8 -6 8 -2 0 4 25 -6 55 -23 30 -17 55 -27 55 -23 0 4 4 4 8 -2 8 -11
107 -65 120 -65 4 0 49 -22 100 -49 51 -27 92 -46 92 -43 0 3 8 -3 19 -12 15
-14 21 -15 32 -4 8 7 23 15 34 16 11 2 23 9 27 15 4 7 8 9 8 4 0 -7 99 40 110
52 3 4 12 7 20 9 8 2 36 14 63 28 26 13 47 21 47 17 0 -5 4 -3 8 3 7 9 68 41
84 44 4 0 33 14 63 31 30 16 55 26 55 22 0 -4 4 -3 8 2 9 13 88 48 107 48 8 0
11 5 8 10 -4 6 1 8 11 4 9 -4 14 -3 11 2 -5 9 20 22 39 20 5 0 12 4 16 11 4 6
19 12 33 14 15 1 30 6 35 11 4 4 1 5 -5 1 -7 -4 -13 -4 -13 -1 0 7 62 30 73
27 4 -1 7 3 7 9 0 6 7 8 16 5 8 -3 13 -2 10 3 -3 4 5 13 17 18 12 6 54 26 92
44 39 18 73 32 78 31 4 -1 7 2 7 6 0 5 27 20 60 33 33 13 60 27 60 32 0 4 4 6
9 3 5 -3 15 2 22 11 12 14 12 16 0 8 -10 -5 -12 -4 -7 4 4 6 12 8 18 5 7 -5 9
1 5 16 l-6 22 20 -21 c11 -11 23 -21 26 -21 4 0 3 3 -1 7 -3 4 8 22 26 40 17
18 26 33 20 33 -10 0 -10 5 -2 20 8 14 8 20 0 20 -7 0 -8 6 0 19 13 24 13 41
0 21 -8 -13 -11 -13 -22 -1 -9 10 -10 12 -1 7 9 -5 11 -2 6 9 -4 12 -8 13 -13
5 -4 -7 -13 -10 -19 -6 -7 5 -9 1 -5 -8 7 -19 -7 -21 -26 -3 -8 6 -6 2 5 -11
17 -20 17 -22 2 -16 -10 3 -17 3 -15 -2 2 -5 0 -10 -4 -11 -17 -6 -20 -2 -8
12 7 8 8 15 3 15 -12 0 -13 31 -1 47 5 6 5 14 0 16 -10 7 -10 257 1 273 3 6 3
14 -1 18 -11 11 -9 80 3 88 7 5 6 8 -1 8 -12 0 -12 28 -1 47 4 6 4 14 0 16
-10 6 -9 109 1 125 4 7 2 12 -4 12 -8 0 -8 6 0 20 6 11 7 20 2 20 -4 0 -8 9
-8 20 0 11 4 20 9 20 5 0 4 7 -3 15 -9 11 -9 15 -1 15 9 0 9 5 1 20 -8 15 -8
20 1 20 8 0 8 4 -1 15 -10 12 -10 15 1 15 10 0 10 3 1 12 -7 7 -8 17 -1 30 7
13 6 18 -2 18 -8 0 -8 4 -1 13 7 8 7 18 2 27 -5 8 -5 21 1 32 7 13 6 18 -2 18
-8 0 -9 4 0 13 8 10 7 17 -1 25 -7 7 -8 12 -2 12 5 0 10 11 10 25 1 14 -2 22
-8 19 -6 -4 -4 4 3 17 15 28 15 29 -3 40 -9 6 -10 9 -1 9 7 0 10 7 7 15 -4 9
-1 15 7 15 8 0 5 6 -7 15 -10 8 -14 15 -9 15 12 0 13 49 2 67 -4 6 -4 14 1 17
10 6 9 56 -1 73 -4 6 -3 14 3 18 11 7 9 33 -3 53 -5 6 -4 12 1 12 5 0 8 14 7
32 -3 31 -41 72 -57 62 -5 -3 -11 2 -14 10 -3 9 -10 14 -14 11 -5 -3 -16 2
-24 11 -9 8 -16 12 -16 8 0 -4 -7 1 -16 12 -8 10 -13 13 -9 7 3 -7 1 -13 -5
-13 -6 0 -13 7 -16 15 -4 8 -10 12 -15 9 -5 -3 -9 0 -9 5 0 6 -3 10 -7 9 -19
-5 -53 15 -53 30 0 12 -3 13 -8 5 -6 -9 -31 0 -95 33 -48 25 -87 42 -87 39 0
-3 -6 0 -14 7 -8 7 -13 15 -11 18 2 3 -8 6 -22 7 -23 1 -70 20 -83 33 -5 5
-60 32 -70 35 -21 5 -106 50 -112 59 -4 6 -8 7 -8 2 0 -5 -10 -1 -22 10 -13
12 -18 13 -13 4 8 -13 7 -13 -11 0 -10 8 -22 20 -26 25 -4 6 -8 7 -8 2 0 -8
-103 43 -108 55 -2 4 -10 4 -18 1 -8 -3 -14 -1 -14 4 0 6 -18 16 -41 23 -23 8
-43 19 -46 26 -2 7 -13 11 -24 9 -10 -2 -19 -1 -19 3 0 8 -55 34 -66 32 -4 -1
-10 3 -13 8 -10 15 -45 22 -61 12z m1321 -2200 c-12 -11 -27 -17 -32 -14 -14
9 0 24 16 17 8 -3 15 0 15 6 0 6 6 11 13 11 6 -1 1 -9 -12 -20z"/>
<path d="M737 2702 c7 -5 9 -13 3 -21 -10 -17 -2 -43 11 -35 5 3 9 1 9 -4 0
-5 6 -9 14 -9 15 0 16 14 2 36 -6 10 -5 12 2 7 7 -4 12 -3 12 2 0 5 -11 14
-25 20 -29 13 -46 16 -28 4z"/>
<path d="M2316 2647 c3 -10 9 -15 12 -12 3 3 0 11 -7 18 -10 9 -11 8 -5 -6z"/>
<path d="M2386 2638 c3 -5 10 -6 15 -3 13 9 11 12 -6 12 -8 0 -12 -4 -9 -9z"/>
<path d="M2346 2602 c-3 -5 1 -9 9 -9 8 0 12 4 9 9 -3 4 -7 8 -9 8 -2 0 -6 -4
-9 -8z"/>
<path d="M2410 2581 c0 -6 4 -13 10 -16 6 -3 7 1 4 9 -7 18 -14 21 -14 7z"/>
<path d="M2364 2522 c4 -3 14 -7 22 -8 9 -1 13 0 10 4 -4 3 -14 7 -22 8 -9 1
-13 0 -10 -4z"/>
<path d="M2431 2503 c0 -5 4 -17 9 -28 8 -17 8 -16 7 8 -1 15 -5 27 -9 27 -4
0 -8 -3 -7 -7z"/>
<path d="M2466 2499 c4 -8 30 -6 38 2 3 3 -5 5 -19 5 -13 0 -22 -3 -19 -7z"/>
<path d="M203 2042 c10 -10 14 -22 10 -27 -5 -4 -2 -5 5 -1 11 6 10 12 -4 27
-9 10 -19 19 -22 19 -3 0 2 -8 11 -18z"/>
<path d="M196 1927 c3 -10 9 -15 12 -12 3 3 0 11 -7 18 -10 9 -11 8 -5 -6z"/>
<path d="M230 1920 c0 -5 5 -10 11 -10 5 0 7 5 4 10 -3 6 -8 10 -11 10 -2 0
-4 -4 -4 -10z"/>
<path d="M170 1896 c0 -2 8 -10 18 -17 15 -13 16 -12 3 4 -13 16 -21 21 -21
13z"/>
<path d="M216 1878 c3 -5 10 -6 15 -3 13 9 11 12 -6 12 -8 0 -12 -4 -9 -9z"/>
<path d="M150 1876 c0 -2 8 -10 18 -17 15 -13 16 -12 3 4 -13 16 -21 21 -21
13z"/>
<path d="M211 1847 c-8 -10 -7 -14 2 -14 8 0 14 6 14 14 0 7 -1 13 -2 13 -2 0
-8 -6 -14 -13z"/>
<path d="M150 1841 c0 -6 4 -13 10 -16 6 -3 7 1 4 9 -7 18 -14 21 -14 7z"/>
<path d="M187 1819 c7 -9 10 -19 6 -22 -3 -4 -1 -7 5 -7 17 0 15 16 -5 31 -16
12 -17 12 -6 -2z"/>
<path d="M133 1805 c0 -8 4 -12 9 -9 5 3 6 10 3 15 -9 13 -12 11 -12 -6z"/>
<path d="M79 1788 c0 -2 -2 -12 -4 -23 -2 -10 -14 -27 -26 -36 -22 -16 -21
-16 24 -15 25 0 43 4 41 8 -2 4 -14 5 -25 3 -21 -4 -21 -4 -3 17 14 15 16 22
6 25 -6 3 -10 9 -6 14 3 5 3 9 0 9 -3 0 -6 -1 -7 -2z"/>
<path d="M150 1780 c0 -5 5 -10 10 -10 6 0 10 5 10 10 0 6 -4 10 -10 10 -5 0
-10 -4 -10 -10z"/>
<path d="M122 1760 c-7 -12 -8 -20 -2 -20 5 0 10 5 10 11 0 5 4 7 10 4 6 -3 7
1 4 9 -8 20 -7 20 -22 -4z"/>
<path d="M179 1768 c-1 -7 -1 -16 0 -20 0 -5 -8 -8 -18 -8 -11 0 -23 -5 -27
-11 -8 -13 16 -30 29 -22 5 3 7 0 5 -8 -3 -8 -11 -13 -17 -11 -6 1 -11 -2 -11
-8 0 -5 4 -10 9 -10 8 0 8 -16 1 -40 -1 -3 -5 4 -10 15 -7 16 -9 17 -9 3 -1
-9 -4 -18 -8 -21 -5 -2 -3 -3 3 -1 7 1 12 -7 12 -19 0 -12 2 -32 5 -45 4 -16
2 -22 -6 -19 -7 2 -11 13 -10 23 1 10 0 13 -3 7 -3 -7 -5 -15 -4 -19 1 -4 -4
-11 -12 -16 -10 -8 -9 -9 4 -4 10 3 20 1 23 -4 3 -5 -3 -11 -12 -13 -16 -4
-17 -5 -1 -6 17 -1 45 36 40 52 -1 5 3 5 10 1 10 -6 10 -5 1 7 -8 9 -9 20 -3
29 8 12 10 10 10 -7 0 -22 18 -27 31 -10 3 4 12 1 19 -8 11 -13 10 -15 -4 -9
-9 3 -16 2 -16 -3 0 -5 9 -9 20 -10 20 -2 23 18 7 44 -4 6 -1 14 5 16 10 4 10
6 1 6 -7 1 -13 6 -13 12 0 5 6 7 13 3 6 -4 5 1 -5 11 -20 22 -41 11 -32 -18 6
-19 5 -20 -10 -8 -15 12 -15 16 -2 36 14 21 13 24 -7 43 -12 12 -25 20 -29 19
-3 -1 -10 1 -14 6 -4 4 2 7 12 7 11 0 25 -5 31 -11 8 -8 16 -8 30 0 16 10 15
10 -7 8 -22 -2 -25 2 -23 26 2 26 -6 40 -8 15z m16 -88 c3 -6 0 -13 -8 -16
-18 -6 -17 -25 2 -48 11 -13 17 -14 30 -4 9 7 13 8 9 4 -4 -5 -2 -16 5 -25 10
-14 10 -14 -4 -4 -9 7 -19 10 -23 6 -3 -4 -12 2 -20 12 -13 18 -13 18 -24 -1
-6 -10 -14 -15 -18 -11 -5 5 -2 12 6 17 8 6 11 10 7 10 -5 0 -5 6 0 13 4 6 8
20 9 30 1 9 2 19 3 22 2 9 20 5 26 -5z m35 -34 c0 -3 -4 -8 -10 -11 -5 -3 -10
-1 -10 4 0 6 5 11 10 11 6 0 10 -2 10 -4z"/>
<path d="M41 1701 c-10 -6 -9 -10 4 -15 10 -3 13 -11 9 -18 -6 -10 -5 -11 8
-1 8 7 17 11 20 8 2 -3 5 2 5 10 0 8 -3 13 -5 10 -3 -3 -10 -1 -16 5 -7 5 -18
5 -25 1z"/>
<path d="M216 1701 c-3 -5 5 -8 18 -7 13 0 22 4 19 9 -6 10 -31 9 -37 -2z"/>
<path d="M121 1684 c0 -11 3 -14 6 -6 3 7 2 16 -1 19 -3 4 -6 -2 -5 -13z"/>
<path d="M97 1609 c7 -7 15 -10 18 -7 3 3 -2 9 -12 12 -14 6 -15 5 -6 -5z"/>
<path d="M73 1583 c4 -3 2 -11 -3 -18 -7 -8 -6 -12 3 -12 7 0 14 9 14 19 1 10
-3 18 -9 18 -6 0 -8 -3 -5 -7z"/>
<path d="M170 1535 c-29 -47 -60 -76 -73 -68 -6 3 -7 1 -3 -5 10 -16 48 10 66
43 10 19 16 22 22 13 10 -16 10 -29 1 -25 -5 1 -9 -2 -10 -7 -1 -5 -7 -12 -14
-17 -8 -4 -10 -12 -5 -16 5 -4 11 -2 13 5 3 6 9 10 13 7 5 -3 7 -12 3 -20 -7
-19 14 -19 32 -1 12 12 12 15 0 20 -12 4 -11 11 6 40 12 20 16 37 10 40 -5 4
-12 -3 -16 -14 -4 -11 -11 -17 -17 -14 -7 4 -6 9 2 14 9 5 9 13 3 25 -9 15
-13 12 -33 -20z m32 -47 c-8 -8 -8 -15 -1 -24 7 -8 6 -14 -3 -20 -7 -4 -10 -3
-5 1 4 5 -1 17 -10 28 -10 11 -13 17 -6 14 6 -4 14 -3 18 3 3 5 9 10 13 10 3
0 1 -5 -6 -12z"/>
<path d="M162 1400 c-7 -12 -18 -18 -24 -14 -7 4 -8 3 -4 -4 9 -14 46 6 46 25
0 18 -3 16 -18 -7z"/>
<path d="M198 1413 c10 -4 10 -8 0 -21 -8 -10 -9 -13 -1 -9 6 4 14 3 18 -3 3
-5 16 -15 28 -21 19 -9 19 -8 -3 10 -14 11 -19 21 -12 21 6 0 12 5 12 11 0 5
-4 8 -9 4 -5 -3 -12 -1 -16 5 -3 5 -12 10 -18 9 -8 0 -8 -2 1 -6z"/>
<path d="M180 1359 c-12 -9 -12 -10 3 -5 28 9 41 -4 20 -21 -16 -13 -16 -13 5
-3 19 9 21 14 11 26 -14 17 -19 17 -39 3z"/>
<path d="M230 1320 c0 -5 5 -10 11 -10 5 0 7 5 4 10 -3 6 -8 10 -11 10 -2 0
-4 -4 -4 -10z"/>
<path d="M194 1294 c1 -7 6 -17 10 -21 4 -4 6 -1 4 7 -2 9 3 14 12 12 8 -2 11
0 7 4 -13 14 -35 12 -33 -2z"/>
<path d="M225 1260 c-3 -6 1 -7 9 -4 18 7 21 14 7 14 -6 0 -13 -4 -16 -10z"/>
<path d="M46 1164 c-4 -9 -4 -19 -1 -22 2 -3 7 3 11 12 4 9 4 19 1 22 -2 3 -7
-3 -11 -12z"/>
<path d="M63 1150 c-7 -10 -20 -17 -30 -16 -12 1 -17 -5 -15 -16 2 -10 -3 -18
-10 -18 -9 0 -9 -3 2 -10 8 -5 10 -10 4 -10 -13 0 -7 -84 7 -88 6 -3 5 -10 -3
-20 -11 -13 -11 -14 1 -7 9 5 19 2 28 -10 7 -11 13 -14 13 -7 0 7 14 10 38 8
46 -5 57 1 40 22 -7 9 -8 13 -2 9 7 -4 14 3 16 18 3 15 1 22 -5 18 -6 -4 -8 0
-4 10 4 10 2 17 -4 17 -6 0 -9 9 -6 20 3 11 2 18 -3 15 -4 -3 -14 9 -22 26 -9
17 -18 30 -22 30 -18 -2 -20 0 -7 8 7 5 9 11 4 14 -5 3 -14 -3 -20 -13z"/>
<path d="M216 1073 c-6 -14 -5 -15 5 -6 7 7 10 15 7 18 -3 3 -9 -2 -12 -12z"/>
<path d="M2803 678 c3 -10 2 -20 -2 -22 -11 -7 -11 -55 -1 -61 8 -5 22 20 25
46 1 9 -5 25 -13 35 -12 16 -14 16 -9 2z"/>
<path d="M2195 329 c-4 -6 -5 -12 -2 -15 2 -3 7 2 10 11 7 17 1 20 -8 4z"/>
</g>
</svg>
